<svg width="21" height="20" viewBox="0 0 21 20" fill="none" xmlns="http://www.w3.org/2000/svg">
<g id="material-symbols:female">
<path id="Vector" d="M9.66797 17.4998V15.8331H8.0013V14.1665H9.66797V12.4165C8.57075 12.222 7.6713 11.6976 6.96964 10.8431C6.26797 9.98869 5.91741 8.99924 5.91797 7.8748C5.91797 6.61091 6.36602 5.53813 7.26214 4.65646C8.15825 3.7748 9.23797 3.33369 10.5013 3.33313C11.7652 3.33313 12.8452 3.77424 13.7413 4.65646C14.6374 5.53869 15.0852 6.61146 15.0846 7.8748C15.0846 8.9998 14.7338 9.98952 14.0321 10.844C13.3305 11.6984 12.4313 12.2226 11.3346 12.4165V14.1665H13.0013V15.8331H11.3346V17.4998H9.66797ZM10.5013 10.8331C11.3069 10.8331 11.9944 10.5484 12.5638 9.97896C13.1332 9.40952 13.418 8.72202 13.418 7.91646C13.418 7.11091 13.1332 6.42341 12.5638 5.85396C11.9944 5.28452 11.3069 4.9998 10.5013 4.9998C9.69575 4.9998 9.00825 5.28452 8.4388 5.85396C7.86936 6.42341 7.58464 7.11091 7.58464 7.91646C7.58464 8.72202 7.86936 9.40952 8.4388 9.97896C9.00825 10.5484 9.69575 10.8331 10.5013 10.8331Z" fill="#5F89F4"/>
</g>
</svg>
