<svg width="21" height="20" viewBox="0 0 21 20" fill="none" xmlns="http://www.w3.org/2000/svg">
<g id="material-symbols:male">
<path id="Vector" d="M17.1673 3.33337V8.33337H15.5007V6.18754L12.1882 9.47921C12.452 9.8681 12.6534 10.2814 12.7923 10.7192C12.9312 11.157 13.0007 11.6117 13.0007 12.0834C13.0007 13.3612 12.5562 14.4445 11.6673 15.3334C10.7784 16.2223 9.6951 16.6667 8.41732 16.6667C7.13954 16.6667 6.05621 16.2223 5.16732 15.3334C4.27843 14.4445 3.83398 13.3612 3.83398 12.0834C3.83398 10.8056 4.27843 9.72226 5.16732 8.83337C6.05621 7.94449 7.13954 7.50004 8.41732 7.50004C8.87565 7.50004 9.32704 7.56587 9.77148 7.69754C10.2159 7.82921 10.6257 8.03421 11.0007 8.31254L14.3132 5.00004H12.1673V3.33337H17.1673ZM8.41732 9.16671C7.61176 9.16671 6.92426 9.45143 6.35482 10.0209C5.78537 10.5903 5.50065 11.2778 5.50065 12.0834C5.50065 12.8889 5.78537 13.5764 6.35482 14.1459C6.92426 14.7153 7.61176 15 8.41732 15C9.22287 15 9.91037 14.7153 10.4798 14.1459C11.0493 13.5764 11.334 12.8889 11.334 12.0834C11.334 11.2778 11.0493 10.5903 10.4798 10.0209C9.91037 9.45143 9.22287 9.16671 8.41732 9.16671Z" fill="#5F89F4"/>
</g>
</svg>
