<svg width="24" height="24" viewBox="0 0 24 24" fill="none" xmlns="http://www.w3.org/2000/svg">
<g id="pepicons-pencil:microphone-handheld">
<g id="Group">
<path id="Vector" fill-rule="evenodd" clip-rule="evenodd" d="M10.1699 7.72382C10.832 8.24625 11.6746 8.48424 12.5122 8.38545C13.3498 8.28665 14.1139 7.85916 14.6363 7.19702C15.1587 6.53488 15.3967 5.69233 15.2979 4.85472C15.1991 4.01711 14.7716 3.25305 14.1095 2.73062C13.4462 2.22314 12.61 1.99694 11.7813 2.10088C10.9527 2.20482 10.1982 2.63056 9.68082 3.28613C9.16345 3.94171 8.92474 4.77449 9.01625 5.60459C9.10776 6.4347 9.52214 7.19669 10.1699 7.72382ZM9.42588 8.66582C10.3379 9.38541 11.4983 9.71324 12.652 9.5772C13.2233 9.50984 13.7757 9.33063 14.2776 9.04979C14.7796 8.76895 15.2214 8.39199 15.5777 7.94042C15.934 7.48886 16.1979 6.97154 16.3542 6.418C16.5106 5.86446 16.5564 5.28554 16.4891 4.71429C16.4217 4.14304 16.2425 3.59065 15.9616 3.08867C15.6808 2.58668 15.3038 2.14493 14.8523 1.78862C13.9384 1.09415 12.7884 0.786196 11.6497 0.93101C10.511 1.07582 9.4747 1.66184 8.76371 2.56296C8.05272 3.46409 7.72388 4.6083 7.84794 5.74942C7.972 6.89053 8.53905 7.93735 9.42708 8.66462L9.42588 8.66582Z" fill="#F2F7FF"/>
<path id="Vector_2" fill-rule="evenodd" clip-rule="evenodd" d="M8.36571 6.40885C8.49617 6.4999 8.58513 6.63902 8.61304 6.79564C8.64094 6.95227 8.6055 7.11356 8.51451 7.24405L3.43011 14.5197C3.38496 14.5843 3.32753 14.6393 3.26109 14.6818C3.19466 14.7242 3.12052 14.7531 3.04291 14.7669C2.88616 14.7946 2.7248 14.759 2.59431 14.6679C2.46383 14.5767 2.3749 14.4374 2.34711 14.2806C2.31932 14.1239 2.35493 13.9625 2.44611 13.8321L7.53051 6.55765C7.57569 6.49298 7.63318 6.43786 7.69969 6.39543C7.76619 6.353 7.84042 6.32411 7.9181 6.3104C7.99579 6.29669 8.07542 6.29844 8.15243 6.31553C8.22944 6.33263 8.30233 6.36475 8.36691 6.41005L8.36571 6.40885ZM12.8105 8.62285C12.692 8.51672 12.5361 8.46203 12.3772 8.4708C12.2183 8.47958 12.0695 8.55111 11.9633 8.66965L11.6873 8.97805L11.3573 9.34405C11.3278 9.36668 11.3005 9.39199 11.2757 9.41965C10.2892 10.5206 9.2972 11.6166 8.29971 12.7077C7.43691 13.6557 6.57171 14.6037 5.31771 16.0041L6.21171 16.8045C7.33082 15.5562 8.45644 14.3138 9.58851 13.0773C10.5341 12.0405 11.4821 11.0013 12.5789 9.77965L12.8573 9.47005C12.9634 9.3515 13.0181 9.19564 13.0094 9.03676C13.0006 8.87788 12.9291 8.729 12.8105 8.62285Z" fill="#F2F7FF"/>
<path id="Vector_3" fill-rule="evenodd" clip-rule="evenodd" d="M2.46663 13.8034C2.51543 13.7414 2.57598 13.6896 2.64482 13.6511C2.71365 13.6125 2.78941 13.5879 2.86777 13.5786C2.94613 13.5694 3.02555 13.5757 3.10147 13.5971C3.1774 13.6186 3.24834 13.6549 3.31023 13.7038L6.13623 15.9334C6.26115 16.0321 6.34176 16.1763 6.36032 16.3344C6.37889 16.4925 6.33389 16.6515 6.23523 16.7764C6.13657 16.9013 5.99233 16.9819 5.83424 17.0005C5.67614 17.0191 5.51715 16.9741 5.39223 16.8754L2.56623 14.6458C2.44136 14.5473 2.36072 14.4032 2.34204 14.2452C2.32337 14.0873 2.36818 13.9283 2.46663 13.8034ZM10.185 4.52621L9.19863 3.02621L10.2018 2.36621L11.187 3.86621C11.8284 4.8435 12.7695 5.58629 13.869 5.98301L15.5574 6.59141L15.1494 7.71941L13.4622 7.11101C12.119 6.62661 10.9691 5.71964 10.185 4.52621Z" fill="#F2F7FF"/>
<path id="Vector_4" fill-rule="evenodd" clip-rule="evenodd" d="M18.7814 14.1893L18.7634 14.1929L18.7118 14.2013C18.404 14.2564 18.0968 14.3144 17.7902 14.3753C17.1902 14.4917 16.3886 14.6537 15.5726 14.8397C15.239 14.9165 14.9726 14.9741 14.7506 15.0233C14.3006 15.1217 14.0306 15.1805 13.7594 15.2657C13.3754 15.3845 13.001 15.5537 12.1034 15.9941C11.6162 16.2341 11.141 16.6301 10.6502 17.1341C10.2863 17.5161 9.93415 17.9091 9.59418 18.3125C9.45618 18.4721 9.31698 18.6341 9.17298 18.7973C8.67138 19.3697 8.13378 19.9493 7.54338 20.4053C6.94938 20.8649 6.27138 21.2225 5.48658 21.3125C4.97538 21.3725 4.44018 21.3725 3.95898 21.3065C3.49818 21.2429 3.00738 21.1073 2.65458 20.8289C2.02698 20.3333 1.60698 19.4957 1.81938 18.3461C1.87818 18.0305 2.06898 17.6609 2.25498 17.3429C2.45538 17.0021 2.70258 16.6349 2.93898 16.3037C3.21147 15.9207 3.49356 15.5445 3.78498 15.1757L3.84498 15.1037L3.85938 15.0833L3.86538 15.0761C3.96635 14.9556 4.11061 14.8795 4.2671 14.8642C4.42359 14.849 4.57982 14.8958 4.70217 14.9945C4.82452 15.0933 4.90322 15.2361 4.92132 15.3923C4.93943 15.5485 4.89549 15.7056 4.79898 15.8297L4.79538 15.8345L4.78098 15.8525L4.72578 15.9209C4.44674 16.2736 4.17665 16.6333 3.91578 16.9997C3.69457 17.3075 3.48599 17.6241 3.29058 17.9489C3.10218 18.2693 3.01458 18.4769 2.99898 18.5645C2.86818 19.2725 3.11778 19.6661 3.39858 19.8869C3.50058 19.9673 3.73698 20.0645 4.12338 20.1173C4.53052 20.1683 4.94235 20.1695 5.34978 20.1209C5.84658 20.0633 6.32178 19.8329 6.81018 19.4561C7.30218 19.0757 7.77618 18.5717 8.27058 18.0065L8.66178 17.5553C9.02658 17.1317 9.40578 16.6913 9.78978 16.2965C10.3202 15.7541 10.9058 15.2453 11.5742 14.9165C12.4622 14.4809 12.9182 14.2697 13.403 14.1197C13.7258 14.0189 14.0666 13.9445 14.5574 13.8365C14.7734 13.7885 15.0206 13.7357 15.3062 13.6697C16.2978 13.445 17.294 13.241 18.2942 13.0577C18.3818 13.0421 18.4502 13.0289 18.4982 13.0217L18.5534 13.0109L18.5714 13.0073C18.7281 12.9795 18.8895 13.015 19.02 13.1062C19.1506 13.1973 19.2395 13.3366 19.2674 13.4933C19.2952 13.65 19.2597 13.8114 19.1685 13.942C19.0774 14.0725 18.9381 14.1615 18.7814 14.1893Z" fill="#F2F7FF"/>
</g>
</g>
</svg>
