<svg width="20" height="20" viewBox="0 0 20 20" fill="none" xmlns="http://www.w3.org/2000/svg">
<path d="M10.0008 15.8332C8.04248 14.3887 6.58081 12.9859 5.61581 11.6248C4.65081 10.2637 4.16804 8.93039 4.16748 7.62484C4.16748 5.88873 4.70915 4.46178 5.79248 3.344C6.87581 2.22623 8.27859 1.66706 10.0008 1.6665C11.723 1.66595 13.1258 2.22512 14.2091 3.344C15.2925 4.46289 15.8341 5.88984 15.8341 7.62484C15.8341 8.93039 15.3516 10.2637 14.3866 11.6248C13.4216 12.9859 11.9597 14.3887 10.0008 15.8332ZM10.0008 9.1665C10.4591 9.1665 10.8516 9.00345 11.1783 8.67734C11.505 8.35123 11.668 7.95873 11.6675 7.49984C11.6669 7.04095 11.5039 6.64873 11.1783 6.32317C10.8528 5.99761 10.4603 5.83428 10.0008 5.83317C9.54137 5.83206 9.14915 5.99539 8.82415 6.32317C8.49915 6.65095 8.33581 7.04317 8.33415 7.49984C8.33248 7.9565 8.49581 8.349 8.82415 8.67734C9.15248 9.00567 9.5447 9.16873 10.0008 9.1665ZM4.16748 18.3332V16.6665H15.8341V18.3332H4.16748Z" fill="#B7CBFF"/>
</svg>
