<svg width="20" height="20" viewBox="0 0 20 20" fill="none" xmlns="http://www.w3.org/2000/svg">
<g id="noun-ecology-1014155 1">
<g id="Group">
<path id="Vector" d="M5.2392 6.41529C3.14316 9.97555 4.86348 12.8249 5.43791 13.6127C4.73543 14.9051 4.19412 16.3259 4.00498 17.8188C3.96192 18.1588 4.20295 18.4694 4.54297 18.5124C4.56947 18.5161 4.59559 18.5176 4.62172 18.5176C4.92972 18.5176 5.19725 18.2883 5.23699 17.9748C5.90782 12.6758 11.7584 8.09735 11.8173 8.05172C12.0885 7.84197 12.1385 7.45191 11.9291 7.1807C11.7194 6.9095 11.3297 6.85872 11.0585 7.06847C10.8881 7.19984 8.16982 9.32569 6.14112 12.4363C5.59982 11.5078 4.85245 9.51998 6.30929 7.04528C7.21637 5.50343 8.62907 5.25835 10.2651 4.97426C11.4659 4.76635 12.7965 4.53526 13.9924 3.72753C14.3762 5.56414 14.9643 9.67637 13.2038 12.097C12.3258 13.3043 10.9315 13.9468 9.05961 14.0061C8.71701 14.0168 8.44765 14.303 8.45869 14.6456C8.46936 14.982 8.74498 15.2473 9.07911 15.2473C9.08573 15.2473 9.09236 15.2473 9.09898 15.2473C11.3757 15.1755 13.0949 14.3605 14.2103 12.8252C16.8715 9.16083 15.0416 2.71999 14.9624 2.44731C14.901 2.23756 14.7339 2.07454 14.5223 2.01971C14.3096 1.96525 14.0852 2.02523 13.9295 2.17979C12.8278 3.26976 11.4802 3.5038 10.0528 3.75108C8.2758 4.05909 6.43809 4.37776 5.2392 6.41529Z" fill="#4BBA84"/>
</g>
</g>
</svg>
