<svg width="20" height="20" viewBox="0 0 20 20" fill="none" xmlns="http://www.w3.org/2000/svg">
<path d="M1.66683 17.5C1.43072 17.5 1.23294 17.42 1.0735 17.26C0.914055 17.1 0.834055 16.9022 0.833499 16.6667C0.832943 16.4311 0.912943 16.2333 1.0735 16.0733C1.23405 15.9133 1.43183 15.8333 1.66683 15.8333H18.3335C18.5696 15.8333 18.7677 15.9133 18.9277 16.0733C19.0877 16.2333 19.1674 16.4311 19.1668 16.6667C19.1663 16.9022 19.0863 17.1003 18.9268 17.2608C18.7674 17.4214 18.5696 17.5011 18.3335 17.5H1.66683ZM3.3335 15C2.87517 15 2.48294 14.8369 2.15683 14.5108C1.83072 14.1847 1.66739 13.7922 1.66683 13.3333V4.16667C1.66683 3.70833 1.83017 3.31611 2.15683 2.99C2.4835 2.66389 2.87572 2.50056 3.3335 2.5H16.6668C17.1252 2.5 17.5177 2.66333 17.8443 2.99C18.171 3.31667 18.3341 3.70889 18.3335 4.16667V13.3333C18.3335 13.7917 18.1704 14.1842 17.8443 14.5108C17.5182 14.8375 17.1257 15.0006 16.6668 15H3.3335Z" fill="#B7CBFF"/>
</svg>
